<svg width="35.000000" height="35.000000" viewBox="0 0 35 35" fill="none" xmlns="http://www.w3.org/2000/svg" xmlns:xlink="http://www.w3.org/1999/xlink">
	<desc>
			Created with Pixso.
	</desc>
	<defs>
		<clipPath id="clip1_936">
			<rect id="instagram 4 1" width="35.000000" height="35.000000" fill="white" fill-opacity="0"/>
		</clipPath>
		<linearGradient id="paint_linear_1_938_0" x1="2.254688" y1="32.764805" x2="34.783516" y2="4.611526" gradientUnits="userSpaceOnUse">
			<stop stop-color="#FFDD55"/>
			<stop offset="0.500000" stop-color="#FF543E"/>
			<stop offset="1.000000" stop-color="#C837AB"/>
		</linearGradient>
	</defs>
	<rect id="instagram 4 1" width="35.000000" height="35.000000" fill="#FFFFFF" fill-opacity="0"/>
	<g clip-path="url(#clip1_936)">
		<path id="Vector" d="M2.18756 2.38171C-0.562836 5.23865 6.10352e-05 8.27344 6.10352e-05 17.493C6.10352e-05 25.1493 -1.33575 32.8245 5.65549 34.6313C7.83862 35.1927 27.1819 35.1927 29.3622 34.6284C32.273 33.8774 34.6413 31.5164 34.9651 27.3995C35.0103 26.825 35.0103 8.17139 34.9636 7.58508C34.6194 3.19995 31.9201 0.672607 28.3632 0.160767C27.548 0.0426025 27.3847 0.00756836 23.2022 0.000244141C8.36652 0.00756836 5.11444 -0.653076 2.18756 2.38171Z" fill="url(#paint_linear_1_938_0)" fill-opacity="1.000000" fill-rule="nonzero"/>
		<path id="Vector" d="M17.497 4.57788C12.2018 4.57788 7.17343 4.10681 5.25281 9.03601C4.45947 11.0719 4.57468 13.7158 4.57468 17.5017C4.57468 20.8237 4.46823 23.946 5.25281 25.9658C7.16907 30.8979 12.2382 30.4254 17.4941 30.4254C22.5647 30.4254 27.7928 30.9532 29.7368 25.9658C30.5316 23.9095 30.4149 21.3051 30.4149 17.5017C30.4149 12.4529 30.6934 9.19348 28.2449 6.74646C25.7657 4.26733 22.413 4.57788 17.4911 4.57788L17.497 4.57788ZM16.3391 6.90686C27.3845 6.8894 28.7903 5.6615 28.0145 22.7196C27.7389 28.7527 23.1451 28.0906 17.4984 28.0906C7.20261 28.0906 6.90656 27.796 6.90656 17.4958C6.90656 7.07605 7.72324 6.91272 16.3391 6.90393L16.3391 6.90686ZM24.3949 9.05212C23.5389 9.05212 22.8447 9.74622 22.8447 10.6023C22.8447 11.4583 23.5389 12.1525 24.3949 12.1525C25.2509 12.1525 25.9451 11.4583 25.9451 10.6023C25.9451 9.74622 25.2509 9.05212 24.3949 9.05212ZM17.497 10.8647C13.8322 10.8647 10.8616 13.8369 10.8616 17.5017C10.8616 21.1664 13.8322 24.1371 17.497 24.1371C21.1618 24.1371 24.1309 21.1664 24.1309 17.5017C24.1309 13.8369 21.1618 10.8647 17.497 10.8647ZM17.497 13.1937C23.1918 13.1937 23.1991 21.8096 17.497 21.8096C11.8036 21.8096 11.7949 13.1937 17.497 13.1937Z" fill="#FFFFFF" fill-opacity="1.000000" fill-rule="nonzero"/>
	</g>
</svg>
