<svg width="20.000000" height="20.000000" viewBox="0 0 20 20" fill="none" xmlns="http://www.w3.org/2000/svg" xmlns:xlink="http://www.w3.org/1999/xlink">
	<desc>
			Created with Pixso.
	</desc>
	<defs>
		<clipPath id="clip1_74">
			<rect width="20.000000" height="20.000000" fill="white" fill-opacity="0"/>
		</clipPath>
	</defs>
	<rect width="20.000000" height="20.000000" fill="#FFFFFF" fill-opacity="0"/>
	<g clip-path="url(#clip1_74)">
		<path d="M9.83038 0.615234C6.23672 0.615234 3.31299 3.53906 3.31299 7.13257C3.31299 11.6494 9.83679 19.3652 9.83679 19.3652C9.83679 19.3652 16.3478 11.4275 16.3478 7.13257C16.3478 3.53906 13.4242 0.615234 9.83038 0.615234ZM11.7968 9.04102C11.2546 9.58301 10.5426 9.85425 9.83038 9.85425C9.11835 9.85425 8.40607 9.58301 7.86407 9.04102C6.77975 7.95679 6.77975 6.19263 7.86407 5.10815C8.38913 4.58301 9.08755 4.2937 9.83038 4.2937C10.5732 4.2937 11.2715 4.58301 11.7968 5.10815C12.8812 6.19263 12.8812 7.95679 11.7968 9.04102Z" fill="#E1E1E1" fill-opacity="1.000000" fill-rule="nonzero"/>
	</g>
</svg>
