<svg>

 <symbol id="logo" width="91.043152" height="26.901367" viewBox="0 0 91.0432 26.9014"  xmlns="http://www.w3.org/2000/svg" xmlns:xlink="http://www.w3.org/1999/xlink" >
	<rect  width="91.043159" height="26.901335" fill="hsla(0, 100%, 50%, 1) " fill-opacity="0"/>
	<path  d="M16.6693 7.76001C16.1273 9.43506 15.8563 11.332 15.8563 13.4507Q15.8563 16.4438 16.5954 18.9197Q17.0284 20.3704 17.7153 21.5801L5.46893 21.5801L5.46893 0.517334L0 0.517334L0 26.384L17.811 26.384L17.811 21.7456Q18.2602 22.5063 18.8125 23.1692C19.8226 24.3516 21.0666 25.2754 22.5447 25.9407Q24.7988 26.9014 27.7919 26.9014Q30.5634 26.9014 32.7805 26.0144C34.2586 25.3987 35.515 24.5242 36.5497 23.3909C37.5844 22.2329 38.3726 20.8164 38.9146 19.1414C39.4812 17.4661 39.7645 15.5693 39.7645 13.4507Q39.7645 10.4575 38.9885 7.98169C38.4958 6.33105 37.7444 4.91455 36.7344 3.73218Q36.3893 3.31812 36.0018 2.94824L36.0016 2.948Q34.7299 1.73413 33.0023 0.997803Q30.7851 0 27.7919 0Q24.9836 0 22.7664 0.923828Q21.394 1.47266 20.2764 2.34741L20.2764 2.34741L20.2763 2.34741Q19.5886 2.88574 18.9973 3.54736Q17.4822 5.24731 16.6693 7.76001ZM53.4577 12.7856L64.0261 12.7856L64.0261 24.3887C63.4595 24.832 62.8313 25.2139 62.1415 25.5342C61.4763 25.8298 60.7619 26.0884 59.9983 26.3101C59.2592 26.5071 58.4955 26.655 57.7072 26.7534C56.9189 26.8521 56.1429 26.9014 55.3792 26.9014C53.6055 26.9014 51.9426 26.6426 50.3906 26.1252C48.8633 25.6079 47.5207 24.8074 46.3629 23.7234C45.2296 22.6147 44.3304 21.2107 43.6653 19.5107C43.0248 17.811 42.7045 15.791 42.7045 13.4507C42.7045 11.0117 43.0987 8.94238 43.887 7.24268C44.6754 5.51831 45.6977 4.12646 46.954 3.06714Q48.314 1.91626 49.8777 1.22827Q50.5233 0.944336 51.2036 0.739014C52.7802 0.246338 54.3445 0 55.8965 0Q58.2985 0 60.1091 0.369629Q61.9567 0.702148 62.9914 1.03467L61.8459 5.57983Q60.8481 5.24731 59.5918 5.02563C58.7542 4.87769 57.7072 4.80371 56.4508 4.80371C55.293 4.80371 54.2337 4.96387 53.2729 5.28418C52.3121 5.57983 51.4745 6.07251 50.7601 6.76221C50.0457 7.45215 49.4915 8.35132 49.0973 9.45972Q48.506 11.1226 48.506 13.4875Q48.506 15.7786 49.0973 17.4045C49.4915 18.4885 50.0211 19.3877 50.6863 20.1021C51.376 20.792 52.1644 21.2969 53.0512 21.6172Q53.231 21.6821 53.4134 21.7383Q54.5812 22.0974 55.8596 22.0974Q56.8573 22.0974 57.855 21.8757C58.5448 21.728 59.1237 21.4939 59.5918 21.1738L59.5918 16.7024L53.4577 16.1113L53.4577 12.7856ZM67.9479 7.76001C67.4059 9.43506 67.1349 11.332 67.1349 13.4507C67.1349 15.446 67.3813 17.269 67.874 18.9197C68.3667 20.5701 69.1058 21.9866 70.0912 23.1692C71.1012 24.3516 72.3452 25.2754 73.8234 25.9407C75.3261 26.5811 77.0752 26.9014 79.0706 26.9014Q81.842 26.9014 84.0591 26.0144C85.5373 25.3987 86.7936 24.5242 87.8283 23.3909C88.863 22.2329 89.6513 20.8164 90.1932 19.1414Q91.0432 16.6287 91.0432 13.4507Q91.0432 10.4575 90.2672 7.98169Q89.5281 5.50586 88.0131 3.73218Q87.6679 3.31812 87.2805 2.94824Q86.0086 1.73413 84.2809 0.997803C82.8028 0.33252 81.066 0 79.0706 0C77.1983 0 75.5232 0.307861 74.045 0.923828C72.567 1.51514 71.3106 2.38965 70.2759 3.54736C69.2659 4.68066 68.4899 6.08472 67.9479 7.76001ZM22.0273 16.9612Q21.6578 15.3723 21.6578 13.4507Q21.6578 8.94238 23.2838 6.87305Q23.905 6.08252 24.7097 5.59399L24.7097 5.59375Q26.011 4.80371 27.7919 4.80371Q29.4548 4.80371 30.6003 5.46899C31.3886 5.8877 32.0292 6.49121 32.5219 7.27954C33.0392 8.04321 33.4087 8.95483 33.6304 10.0142C33.8521 11.0735 33.963 12.219 33.963 13.4507C33.963 16.5547 33.421 18.7717 32.3371 20.1021Q31.7968 20.7651 31.1138 21.2078Q29.7411 22.0974 27.7919 22.0974C26.7327 22.0974 25.8088 21.8882 25.0205 21.4692C24.2568 21.0505 23.6287 20.4592 23.1359 19.6956Q22.3969 18.55 22.0273 16.9612ZM73.306 16.9612C73.0597 15.9019 72.9365 14.7317 72.9365 13.4507C72.9365 10.4453 73.4785 8.25269 74.5624 6.87305Q75.1837 6.08252 75.9884 5.59375Q77.2896 4.80371 79.0706 4.80371Q80.7335 4.80371 81.879 5.46899C82.6673 5.8877 83.3078 6.49121 83.8005 7.27954C84.3178 8.04321 84.6873 8.95483 84.9091 10.0142C85.1308 11.0735 85.2416 12.219 85.2416 13.4507Q85.2416 18.1067 83.6157 20.1021C82.5318 21.4324 81.0168 22.0974 79.0706 22.0974C78.0113 22.0974 77.0875 21.8882 76.2992 21.4692C75.5355 21.0505 74.9073 20.4592 74.4146 19.6956C73.9219 18.9319 73.5524 18.0205 73.306 16.9612Z" fill="#0DBC91" fill-opacity="1" />
    </symbol>

    <symbol id="logo-footer" width="91.043152" height="26.901367" viewBox="0 0 91.0432 26.9014"  xmlns="http://www.w3.org/2000/svg" xmlns:xlink="http://www.w3.org/1999/xlink" >
	<rect  width="91.043159" height="26.901335" fill="hsla(0, 100%, 50%, 1) " fill-opacity="0"/>
	<path  d="M16.6693 7.76001C16.1273 9.43506 15.8563 11.332 15.8563 13.4507Q15.8563 16.4438 16.5954 18.9197Q17.0284 20.3704 17.7153 21.5801L5.46893 21.5801L5.46893 0.517334L0 0.517334L0 26.384L17.811 26.384L17.811 21.7456Q18.2602 22.5063 18.8125 23.1692C19.8226 24.3516 21.0666 25.2754 22.5447 25.9407Q24.7988 26.9014 27.7919 26.9014Q30.5634 26.9014 32.7805 26.0144C34.2586 25.3987 35.515 24.5242 36.5497 23.3909C37.5844 22.2329 38.3726 20.8164 38.9146 19.1414C39.4812 17.4661 39.7645 15.5693 39.7645 13.4507Q39.7645 10.4575 38.9885 7.98169C38.4958 6.33105 37.7444 4.91455 36.7344 3.73218Q36.3893 3.31812 36.0018 2.94824L36.0016 2.948Q34.7299 1.73413 33.0023 0.997803Q30.7851 0 27.7919 0Q24.9836 0 22.7664 0.923828Q21.394 1.47266 20.2764 2.34741L20.2764 2.34741L20.2763 2.34741Q19.5886 2.88574 18.9973 3.54736Q17.4822 5.24731 16.6693 7.76001ZM53.4577 12.7856L64.0261 12.7856L64.0261 24.3887C63.4595 24.832 62.8313 25.2139 62.1415 25.5342C61.4763 25.8298 60.7619 26.0884 59.9983 26.3101C59.2592 26.5071 58.4955 26.655 57.7072 26.7534C56.9189 26.8521 56.1429 26.9014 55.3792 26.9014C53.6055 26.9014 51.9426 26.6426 50.3906 26.1252C48.8633 25.6079 47.5207 24.8074 46.3629 23.7234C45.2296 22.6147 44.3304 21.2107 43.6653 19.5107C43.0248 17.811 42.7045 15.791 42.7045 13.4507C42.7045 11.0117 43.0987 8.94238 43.887 7.24268C44.6754 5.51831 45.6977 4.12646 46.954 3.06714Q48.314 1.91626 49.8777 1.22827Q50.5233 0.944336 51.2036 0.739014C52.7802 0.246338 54.3445 0 55.8965 0Q58.2985 0 60.1091 0.369629Q61.9567 0.702148 62.9914 1.03467L61.8459 5.57983Q60.8481 5.24731 59.5918 5.02563C58.7542 4.87769 57.7072 4.80371 56.4508 4.80371C55.293 4.80371 54.2337 4.96387 53.2729 5.28418C52.3121 5.57983 51.4745 6.07251 50.7601 6.76221C50.0457 7.45215 49.4915 8.35132 49.0973 9.45972Q48.506 11.1226 48.506 13.4875Q48.506 15.7786 49.0973 17.4045C49.4915 18.4885 50.0211 19.3877 50.6863 20.1021C51.376 20.792 52.1644 21.2969 53.0512 21.6172Q53.231 21.6821 53.4134 21.7383Q54.5812 22.0974 55.8596 22.0974Q56.8573 22.0974 57.855 21.8757C58.5448 21.728 59.1237 21.4939 59.5918 21.1738L59.5918 16.7024L53.4577 16.1113L53.4577 12.7856ZM67.9479 7.76001C67.4059 9.43506 67.1349 11.332 67.1349 13.4507C67.1349 15.446 67.3813 17.269 67.874 18.9197C68.3667 20.5701 69.1058 21.9866 70.0912 23.1692C71.1012 24.3516 72.3452 25.2754 73.8234 25.9407C75.3261 26.5811 77.0752 26.9014 79.0706 26.9014Q81.842 26.9014 84.0591 26.0144C85.5373 25.3987 86.7936 24.5242 87.8283 23.3909C88.863 22.2329 89.6513 20.8164 90.1932 19.1414Q91.0432 16.6287 91.0432 13.4507Q91.0432 10.4575 90.2672 7.98169Q89.5281 5.50586 88.0131 3.73218Q87.6679 3.31812 87.2805 2.94824Q86.0086 1.73413 84.2809 0.997803C82.8028 0.33252 81.066 0 79.0706 0C77.1983 0 75.5232 0.307861 74.045 0.923828C72.567 1.51514 71.3106 2.38965 70.2759 3.54736C69.2659 4.68066 68.4899 6.08472 67.9479 7.76001ZM22.0273 16.9612Q21.6578 15.3723 21.6578 13.4507Q21.6578 8.94238 23.2838 6.87305Q23.905 6.08252 24.7097 5.59399L24.7097 5.59375Q26.011 4.80371 27.7919 4.80371Q29.4548 4.80371 30.6003 5.46899C31.3886 5.8877 32.0292 6.49121 32.5219 7.27954C33.0392 8.04321 33.4087 8.95483 33.6304 10.0142C33.8521 11.0735 33.963 12.219 33.963 13.4507C33.963 16.5547 33.421 18.7717 32.3371 20.1021Q31.7968 20.7651 31.1138 21.2078Q29.7411 22.0974 27.7919 22.0974C26.7327 22.0974 25.8088 21.8882 25.0205 21.4692C24.2568 21.0505 23.6287 20.4592 23.1359 19.6956Q22.3969 18.55 22.0273 16.9612ZM73.306 16.9612C73.0597 15.9019 72.9365 14.7317 72.9365 13.4507C72.9365 10.4453 73.4785 8.25269 74.5624 6.87305Q75.1837 6.08252 75.9884 5.59375Q77.2896 4.80371 79.0706 4.80371Q80.7335 4.80371 81.879 5.46899C82.6673 5.8877 83.3078 6.49121 83.8005 7.27954C84.3178 8.04321 84.6873 8.95483 84.9091 10.0142C85.1308 11.0735 85.2416 12.219 85.2416 13.4507Q85.2416 18.1067 83.6157 20.1021C82.5318 21.4324 81.0168 22.0974 79.0706 22.0974C78.0113 22.0974 77.0875 21.8882 76.2992 21.4692C75.5355 21.0505 74.9073 20.4592 74.4146 19.6956C73.9219 18.9319 73.5524 18.0205 73.306 16.9612Z" fill="#FFFFFF" fill-opacity="1" />
    </symbol>
    <symbol id="icon-prev" width="34.000023" height="16.468750" viewBox="0 0 34 16"  xmlns="http://www.w3.org/2000/svg" xmlns:xlink="http://www.w3.org/1999/xlink">
    <path  d="M32.6719 6.90625L4.545 6.90625L9.20433 2.26953C9.72423 1.75208 9.72622 0.911133 9.20878 0.391235C8.69135 -0.128662 7.85037 -0.130615 7.33047 0.386719L0.390762 7.29297C0.390297 7.29333 0.389961 7.29382 0.389565 7.29419C-0.129005 7.81165 -0.130661 8.65527 0.389435 9.17444C0.389893 9.17493 0.390228 9.17529 0.390625 9.17578L7.33035 16.0819C7.85017 16.5992 8.69115 16.5975 9.20865 16.0774C9.72608 15.5576 9.72409 14.7167 9.2042 14.1992L4.545 9.5625L32.6719 9.5625C33.4054 9.5625 34 8.9679 34 8.23438C34 7.50085 33.4054 6.90625 32.6719 6.90625Z" fill="#E1E1E1" fill-opacity="1.000000" fill-rule="nonzero"/>
    </symbol>
    <symbol id="icon-next" width="34.000023" height="16.468750" viewBox="0 0 34 16.4688" fill="none" xmlns="http://www.w3.org/2000/svg" xmlns:xlink="http://www.w3.org/1999/xlink">
    <path  d="M1.32812 6.90625L29.455 6.90625L24.7957 2.26953C24.2758 1.75208 24.2738 0.911133 24.7912 0.391235C25.3087 -0.128662 26.1497 -0.130615 26.6695 0.386719L33.6093 7.29297C33.6097 7.29333 33.6101 7.29382 33.6105 7.29419C34.129 7.81165 34.1307 8.65527 33.6106 9.17444C33.6101 9.17493 33.6098 9.17529 33.6094 9.17578L26.6697 16.0819C26.1498 16.5992 25.3089 16.5975 24.7914 16.0774C24.2739 15.5576 24.2759 14.7167 24.7958 14.1992L29.455 9.5625L1.32812 9.5625C0.594604 9.5625 0 8.9679 0 8.23438C0 7.50085 0.594604 6.90625 1.32812 6.90625Z" fill="#E1E1E1" fill-opacity="1.000000" fill-rule="nonzero"/>
    </symbol>

</svg>