<svg width="34.000023" height="16.468750" viewBox="0 0 34 16.4688" fill="none" xmlns="http://www.w3.org/2000/svg" xmlns:xlink="http://www.w3.org/1999/xlink">
	<desc>
			Created with Pixso.
	</desc>
	<defs/>
	<path id="Vector" d="M1.32812 6.90625L29.455 6.90625L24.7957 2.26953C24.2758 1.75208 24.2738 0.911133 24.7912 0.391235C25.3087 -0.128662 26.1497 -0.130615 26.6695 0.386719L33.6093 7.29297C33.6097 7.29333 33.6101 7.29382 33.6105 7.29419C34.129 7.81165 34.1307 8.65527 33.6106 9.17444C33.6101 9.17493 33.6098 9.17529 33.6094 9.17578L26.6697 16.0819C26.1498 16.5992 25.3089 16.5975 24.7914 16.0774C24.2739 15.5576 24.2759 14.7167 24.7958 14.1992L29.455 9.5625L1.32812 9.5625C0.594604 9.5625 0 8.9679 0 8.23438C0 7.50085 0.594604 6.90625 1.32812 6.90625Z" fill="#E1E1E1" fill-opacity="1.000000" fill-rule="nonzero"/>
</svg>
