<svg width="34.000023" height="16.468750" viewBox="0 0 34 16.4688" fill="none" xmlns="http://www.w3.org/2000/svg" xmlns:xlink="http://www.w3.org/1999/xlink">
	<desc>
			Created with Pixso.
	</desc>
	<defs/>
	<path id="Vector" d="M32.6719 6.90625L4.545 6.90625L9.20433 2.26953C9.72423 1.75208 9.72622 0.911133 9.20878 0.391235C8.69135 -0.128662 7.85037 -0.130615 7.33047 0.386719L0.390762 7.29297C0.390297 7.29333 0.389961 7.29382 0.389565 7.29419C-0.129005 7.81165 -0.130661 8.65527 0.389435 9.17444C0.389893 9.17493 0.390228 9.17529 0.390625 9.17578L7.33035 16.0819C7.85017 16.5992 8.69115 16.5975 9.20865 16.0774C9.72608 15.5576 9.72409 14.7167 9.2042 14.1992L4.545 9.5625L32.6719 9.5625C33.4054 9.5625 34 8.9679 34 8.23438C34 7.50085 33.4054 6.90625 32.6719 6.90625Z" fill="#E1E1E1" fill-opacity="1.000000" fill-rule="nonzero"/>
</svg>
