<svg width="28.000000" height="28.000000" viewBox="0 0 28 28" fill="none" xmlns="http://www.w3.org/2000/svg" xmlns:xlink="http://www.w3.org/1999/xlink">
	<desc>
			Created with Pixso.
	</desc>
	<defs>
		<clipPath id="clip1_150">
			<rect id="whatsapp 1" width="28.000000" height="28.000000" fill="white" fill-opacity="0"/>
		</clipPath>
	</defs>
	<rect id="whatsapp 1" width="28.000000" height="28.000000" fill="#FFFFFF" fill-opacity="0"/>
	<g clip-path="url(#clip1_150)">
		<path id="Vector" d="M23.94 4.02393C21.28 1.45239 17.78 0 14.0525 0C3.35417 0 -3.36349 11.5908 1.97867 20.811L0 28L7.39084 26.0728C10.6108 27.8123 13.2487 27.6582 14.0595 27.7607C26.4647 27.7607 32.6398 12.7529 23.9225 4.06934L23.94 4.02393Z" fill="#ECEFF1" fill-opacity="1.000000" fill-rule="nonzero"/>
		<path id="Vector" d="M14.0782 25.3762L14.0712 25.375L14.0525 25.375C10.3401 25.375 7.96832 23.6169 7.73499 23.5154L3.35999 24.6528L4.53249 20.4004L4.25365 19.9629C3.09865 18.1243 2.48499 16.0066 2.48499 13.8262C2.48499 3.56763 15.0208 -1.56226 22.2751 5.68872C29.512 12.8638 24.4312 25.3762 14.0782 25.3762Z" fill="#1FA181" fill-opacity="1.000000" fill-rule="nonzero"/>
		<path id="Vector" d="M20.4249 16.6917L20.4144 16.7791C20.0632 16.604 18.3529 15.7676 18.0344 15.6521C17.3192 15.3872 17.521 15.6101 16.1479 17.1826C15.9437 17.4102 15.7407 17.4277 15.3942 17.2703C15.0442 17.0952 13.9207 16.7278 12.5907 15.5376C11.5547 14.6101 10.8594 13.4727 10.654 13.1228C10.3122 12.5325 11.0274 12.4485 11.6784 11.2163C11.795 10.9714 11.7355 10.7788 11.6492 10.605C11.5617 10.4299 10.8652 8.71509 10.5735 8.03125C10.2935 7.3501 10.0054 7.43628 9.78954 7.43628C9.11754 7.37793 8.62637 7.38745 8.19354 7.83765C6.31053 9.90747 6.78537 12.0425 8.39655 14.3127C11.5629 18.4568 13.2499 19.2197 16.3345 20.2791C17.1675 20.5439 17.927 20.5066 18.5279 20.4202C19.1975 20.314 20.5894 19.5791 20.8799 18.7566C21.1774 17.9341 21.1774 17.2515 21.0899 17.094C21.0035 16.9365 20.7749 16.8491 20.4249 16.6917Z" fill="#FAFAFA" fill-opacity="1.000000" fill-rule="nonzero"/>
	</g>
</svg>
